<svg width="80" height="80" viewBox="0 0 80 80" fill="#fff" xmlns="http://www.w3.org/2000/svg"><path fill-rule="evenodd" clip-rule="evenodd" d="M0 0v69h3V3h74v74H3v-5H0v8h80V0H0z" fill="#fff"/><path fill-rule="evenodd" clip-rule="evenodd" d="M25.802 28.623l.414-2.07.577-2.857h.103l.578 2.878.392 2.05h-2.064zm2.518-8.797h-2.97L21.2 34.233h3.16c.135-.484.27-.973.401-1.47l.38-1.47h3.407l.7 2.94h3.22L28.32 19.827v-.002zm8.478 30.078c-.22.331-.626.495-1.22.495h-1.65v-3.31h1.674c.536 0 .925.147 1.165.436.24.288.36.677.36 1.16 0 .481-.11.887-.33 1.22h.001zm-2.87-8.34h1.467c.563 0 .964.117 1.196.352.234.234.352.594.352 1.075 0 .443-.118.8-.352 1.078-.232.276-.625.413-1.176.413H33.93v-2.919.001zm5.677 5.453a2.922 2.922 0 0 0-.578-.756 2.276 2.276 0 0 0-.846-.497v-.102c.605-.25 1.038-.64 1.3-1.172.26-.528.39-1.065.39-1.6 0-1.272-.362-2.264-1.09-2.983-.73-.718-1.797-1.075-3.202-1.075h-4.642v14.404h4.85a4.96 4.96 0 0 0 1.734-.29c.522-.194.97-.475 1.34-.849.374-.372.662-.83.867-1.377.207-.544.31-1.166.31-1.87 0-.305-.034-.614-.103-.934a3.422 3.422 0 0 0-.33-.898zm13.033-5.454h3.074v11.672h2.973v-11.67h3.076v-2.733h-9.123v2.732zm19.84 5.962a3.278 3.278 0 0 0-.609-1.212 4.01 4.01 0 0 0-1.157-.97c-.48-.285-1.08-.537-1.797-.759a13.493 13.493 0 0 1-1.01-.352 5.947 5.947 0 0 1-.826-.392 2.11 2.11 0 0 1-.556-.456.84.84 0 0 1-.206-.557c0-.389.14-.695.423-.932.283-.235.642-.353 1.082-.353.84 0 1.604.41 2.29 1.222l2.147-2.029a4.71 4.71 0 0 0-1.764-1.5c-.693-.338-1.586-.508-2.673-.508a5.278 5.278 0 0 0-1.846.31c-.558.21-1.037.5-1.436.88s-.715.84-.93 1.347a4.325 4.325 0 0 0-.33 1.706c0 .54.07 1.02.208 1.45.138.427.355.807.65 1.14.33.356.716.656 1.144.887a8.9 8.9 0 0 0 1.695.703c.358.1.687.203.99.313.302.108.567.242.794.392.227.152.406.327.537.527.13.203.195.44.195.714 0 .4-.12.74-.358 1.015-.243.276-.68.414-1.313.414-.522 0-.987-.125-1.393-.372-.405-.248-.793-.636-1.166-1.16l-2.353 1.904c.247.36.53.688.847.985.316.297.67.55 1.063.765.39.214.832.383 1.32.508a6.727 6.727 0 0 0 1.64.182c1.556 0 2.756-.38 3.603-1.149.847-.765 1.27-1.836 1.27-3.216a5.612 5.612 0 0 0-.176-1.447zm-24.21 1.386c0 .481-.155.86-.464 1.137a1.61 1.61 0 0 1-1.105.414c-.59 0-1.014-.18-1.27-.539-.254-.36-.38-.813-.38-1.364V43.22c.003-.383.138-.752.381-1.048.132-.156.3-.288.507-.394.205-.1.46-.153.762-.153.303 0 .554.06.753.178.2.116.362.258.486.421.124.167.21.338.257.518.048.18.072.337.072.477v5.692zm1.897-8.723a4.07 4.07 0 0 0-1.423-1.056c-.578-.268-1.258-.404-2.043-.404-.84 0-1.55.14-2.136.425a4.289 4.289 0 0 0-1.435 1.087c-.367.433-.64.937-.805 1.48a5.608 5.608 0 0 0-.248 1.626v5.13c0 .648.086 1.267.26 1.861a4.24 4.24 0 0 0 .815 1.563c.388.463.879.828 1.433 1.068.585.26 1.29.392 2.116.392.675 0 1.29-.108 1.847-.32a4.087 4.087 0 0 0 1.445-.932c.407-.406.723-.895.95-1.468.226-.577.34-1.22.34-1.935v-5.36c0-.567-.092-1.124-.28-1.678a4.393 4.393 0 0 0-.836-1.479zm-24.55 27.665c0 .483-.154.873-.463 1.17a1.54 1.54 0 0 1-1.104.444c-.592 0-1.016-.18-1.27-.538-.253-.359-.38-.814-.38-1.367v-9.724h-2.973v9.645c0 .648.086 1.266.258 1.86a4.26 4.26 0 0 0 .814 1.561c.372.45.85.806 1.434 1.067.586.261 1.29.394 2.117.394a5.161 5.161 0 0 0 1.847-.32 4.097 4.097 0 0 0 1.444-.934 4.24 4.24 0 0 0 .95-1.469c.228-.572.34-1.218.34-1.932v-9.872h-3.013v10.015zm14.67-38.567c0 .676-.128 1.207-.38 1.592-.255.387-.76.581-1.517.581h-1.26v-8.837h1.238c.427 0 .77.087 1.022.26.256.171.447.405.578.702.13.297.217.64.258 1.024.042.386.062.787.062 1.2v3.478zm2.58 2.462c.233-.622.36-1.37.373-2.247.013-.875.02-1.94.02-3.197 0-.868-.017-1.657-.052-2.367-.034-.712-.152-1.306-.34-1.79-.322-.828-.815-1.42-1.498-1.78-.68-.36-1.502-.54-2.464-.54h-4.748v14.406h4.48c.453 0 .906-.041 1.352-.125a4.676 4.676 0 0 0 1.207-.403c.37-.188.697-.438.98-.758.28-.316.51-.717.69-1.199zm-29.08 12.683c-.337.255-.746.383-1.227.383h-1.61v-3.25h1.692c.482 0 .877.117 1.187.352.31.234.465.627.465 1.18 0 .632-.168 1.078-.507 1.336zm2.84 1.024c.357-.664.534-1.456.534-2.38 0-.745-.116-1.384-.35-1.915a3.608 3.608 0 0 0-.958-1.314 3.986 3.986 0 0 0-1.426-.766 5.927 5.927 0 0 0-1.723-.248H7.954v14.404h2.993v-5.69h1.26l1.92 5.69h3.24l-2.312-6.23a3.792 3.792 0 0 0 1.57-1.55zm-5.698-18.033l.082-.02.972 2.482.804 1.99h2.146l.764-1.864.992-2.588.082.021v6.79h2.972V19.827h-2.806l-1.653 3.994-1.382 3.622h-.104l-1.424-3.6-1.672-4.017H7.954v14.407h2.973v-6.81zM22.212 43.22c.005-.382.139-.75.38-1.047.132-.157.3-.29.507-.395.24-.108.501-.16.764-.153.302 0 .552.06.753.178.2.116.362.258.486.421.124.167.21.338.257.518.047.18.072.337.072.477v5.69c0 .483-.154.862-.465 1.14a1.6 1.6 0 0 1-1.103.412c-.592 0-1.015-.18-1.27-.539-.254-.36-.38-.813-.38-1.364V43.22zm-1.9 8.68c.372.45.85.804 1.435 1.067.584.26 1.29.392 2.116.392a5.16 5.16 0 0 0 1.847-.32 4.1 4.1 0 0 0 1.446-.932c.404-.406.72-.895.947-1.468.228-.577.342-1.22.342-1.935v-5.36c0-.567-.093-1.124-.28-1.678a4.389 4.389 0 0 0-.836-1.479 4.088 4.088 0 0 0-1.423-1.056c-.58-.268-1.258-.404-2.043-.404-.84 0-1.55.14-2.137.425-.584.284-1.063.645-1.434 1.087-.37.441-.64.933-.806 1.48a5.607 5.607 0 0 0-.246 1.626v5.13c0 .648.085 1.267.257 1.861.172.594.444 1.116.816 1.563zm-6.527 11.536c-.337.252-.746.382-1.227.382h-1.61v-3.25h1.692c.48 0 .877.117 1.187.351.31.234.463.628.463 1.18 0 .634-.168 1.078-.505 1.337zm2.84 1.023c.356-.663.534-1.458.534-2.38 0-.745-.116-1.383-.35-1.914a3.613 3.613 0 0 0-.958-1.316 3.949 3.949 0 0 0-1.426-.766 5.933 5.933 0 0 0-1.723-.247H7.954V72.24h2.993v-5.69h1.26l1.92 5.691h3.24l-2.312-6.23a3.793 3.793 0 0 0 1.57-1.55v-.002z" fill="#fff"/></svg>
